HIERARCHY
ROOT Hips
{
	OFFSET 0.000000 0.000000 0.000000 
	CHANNELS 6 Xposition Yposition Zposition Zrotation Yrotation Xrotation
	JOINT LeftUpLeg
	{
		OFFSET 1.363060 -1.794630 0.839290 
		CHANNELS 3 Zrotation Yrotation Xrotation
		JOINT LeftLeg
		{
			OFFSET 2.448110 -6.726130 0.000000 
			CHANNELS 3 Zrotation Yrotation Xrotation
			JOINT LeftFoot
			{
				OFFSET 2.562200 -7.039590 0.000000 
				CHANNELS 3 Zrotation Yrotation Xrotation
				JOINT LeftToeBase
				{
					OFFSET 0.157640 -0.433110 2.322550 
					CHANNELS 3 Zrotation Yrotation Xrotation
					End Site
					{
						OFFSET 0.000000 0.000000 0.000000 
					}
				}
			}
		}
	}
	JOINT RightUpLeg
	{
		OFFSET -1.305520 -1.794630 0.839290 
		CHANNELS 3 Zrotation Yrotation Xrotation
		JOINT RightLeg
		{
			OFFSET -2.542530 -6.985550 0.000000 
			CHANNELS 3 Zrotation Yrotation Xrotation
			JOINT RightFoot
			{
				OFFSET -2.568260 -7.056230 0.000000 
				CHANNELS 3 Zrotation Yrotation Xrotation
				JOINT RightToeBase
				{
					OFFSET -0.164730 -0.452590 2.363150 
					CHANNELS 3 Zrotation Yrotation Xrotation
					End Site
					{
						OFFSET 0.000000 0.000000 0.000000 
					}
				}
			}
		}
	}
	JOINT Spine
	{
		OFFSET 0.028270 2.035590 -0.193380 
		CHANNELS 3 Zrotation Yrotation Xrotation
		JOINT Spine1
		{
			OFFSET 0.056720 2.048850 -0.042750 
			CHANNELS 3 Zrotation Yrotation Xrotation
			JOINT Neck1
			{
				OFFSET -0.054170 1.746240 0.172020 
				CHANNELS 3 Zrotation Yrotation Xrotation
				JOINT Head
				{
					OFFSET 0.104070 1.761360 -0.123970 
					CHANNELS 3 Zrotation Yrotation Xrotation
					End Site
					{
						OFFSET 0.000000 0.000000 0.000000 
					}
				}
			}
			JOINT LeftArm
			{
				OFFSET 3.362410 1.200890 -0.311210 
				CHANNELS 3 Zrotation Yrotation Xrotation
				JOINT LeftForeArm
				{
					OFFSET 4.983000 -0.000000 -0.000000 
					CHANNELS 3 Zrotation Yrotation Xrotation
					JOINT LeftHand
					{
						OFFSET 3.483560 -0.000000 -0.000000 
						CHANNELS 3 Zrotation Yrotation Xrotation
						JOINT LeftHandIndex1
						{
							OFFSET 0.715260 -0.000000 -0.000000 
							CHANNELS 3 Zrotation Yrotation Xrotation
							End Site
							{
								OFFSET 0.000000 0.000000 0.000000 
							}
						}
					}
				}
			}
			JOINT RightArm
			{
				OFFSET -3.136600 1.374050 -0.404650 
				CHANNELS 3 Zrotation Yrotation Xrotation
				JOINT RightForeArm
				{
					OFFSET -5.241900 -0.000000 -0.000000 
					CHANNELS 3 Zrotation Yrotation Xrotation
					JOINT RightHand
					{
						OFFSET -3.444170 -0.000000 -0.000000 
						CHANNELS 3 Zrotation Yrotation Xrotation
						JOINT RightHandIndex1
						{
							OFFSET -0.622530 -0.000000 -0.000000 
							CHANNELS 3 Zrotation Yrotation Xrotation
							End Site
							{
								OFFSET 0.000000 0.000000 0.000000 
							}
						}
					}
				}
			}
		}
	}
}
MOTION
Frames: 13
Frame Time: 0.041667
7.524929 17.653651 -15.705131 -1.884806 -2.169166 -1.176748 -9.559850 -0.802550 -2.361571 -0.277339 6.572640 17.781680 -0.443794 4.072534 -4.291773 0.130100 -2.324800 -6.404300 19.726773 -3.466553 -1.385721 -0.630264 -6.691321 17.835667 1.169977 -9.499354 -9.361759 0.000000 0.014100 -0.038700 0.834370 0.115133 -3.670938 4.014469 0.301512 -2.019619 5.767861 -3.176933 11.493062 3.561100 -1.720200 8.237300 -51.211180 -43.193931 29.319427 90.145124 -61.457007 -62.750892 0.828396 -0.462217 19.575789 -7.125000 0.000000 0.000000 45.321479 42.172031 29.017432 -106.959723 57.573235 -73.861763 -0.309496 -0.203565 9.479620 7.125000 0.000000 0.000000 
7.525533 17.655763 -15.696582 -1.789386 -2.304164 -1.221901 -9.676509 -0.853094 -2.283206 -0.270501 6.604868 17.865460 -0.493691 4.290127 -4.294713 0.201800 -2.892500 -7.979500 19.641925 -3.269202 -1.223487 -0.622029 -6.669873 17.772638 1.206671 -9.705119 -9.418953 0.000000 0.009600 -0.026400 0.835798 0.162104 -3.674496 4.124812 0.328398 -2.001239 5.869146 -3.181770 11.487638 3.621000 -1.722600 8.168400 -51.298400 -43.272520 29.557759 89.468595 -61.423540 -62.189112 0.846126 -0.484975 19.159142 -7.125000 0.000000 0.000000 45.315309 42.171062 29.129554 -106.723720 57.615814 -73.642721 -0.309544 -0.206687 9.322971 7.125000 0.000000 0.000000 
7.523722 17.650332 -15.686524 -1.875683 -2.512163 -1.311153 -9.585070 -0.683949 -2.216676 -0.254864 6.633822 17.952928 -0.513351 4.381513 -4.376232 0.295900 -3.497600 -9.667300 19.795092 -3.079598 -0.984096 -0.608676 -6.630415 17.657495 1.237443 -9.861775 -9.358488 -0.001300 0.231300 -0.635500 0.851017 0.239941 -3.680855 4.177187 0.371127 -2.044811 5.939989 -3.196814 11.400937 3.661600 -1.730300 8.047100 -51.536105 -43.355117 29.960177 88.705339 -61.380617 -61.549015 0.869796 -0.509869 18.831407 -7.125000 0.000000 0.000000 45.258682 42.321015 29.313371 -106.403769 57.661953 -73.346827 -0.310410 -0.210101 9.028079 7.125000 0.000000 0.000000 
7.525734 17.649427 -15.672343 -2.000967 -2.603355 -1.369933 -9.457361 -0.609200 -2.127532 -0.251411 6.627793 17.941265 -0.501579 4.333116 -4.403119 0.248600 -3.208100 -8.858600 19.943808 -3.085603 -0.883406 -0.613132 -6.644991 17.699509 1.216579 -9.755529 -9.383057 -0.000200 0.087300 -0.239800 0.882666 0.241366 -3.658908 4.211793 0.366812 -1.918678 5.763396 -3.214926 11.427386 3.579200 -1.752000 8.089200 -51.528385 -43.364286 30.075347 88.533351 -61.376537 -61.403294 0.887460 -0.522364 18.567742 -7.125000 0.000000 0.000000 45.099725 42.624282 29.429452 -106.136681 57.703841 -73.094703 -0.312308 -0.214072 8.657327 7.125000 0.000000 0.000000 
7.534182 17.651941 -15.657658 -1.723368 -2.552955 -1.424715 -9.787750 -0.685128 -1.994149 -0.263956 6.613019 17.891846 -0.494199 4.312584 -4.543833 0.203700 -2.906200 -8.017800 19.547503 -3.240161 -0.889152 -0.631624 -6.697457 17.853599 1.169065 -9.509982 -9.455564 -0.000800 -0.183100 0.503200 0.863958 0.181569 -3.627803 4.215189 0.331386 -1.719462 5.550384 -3.154000 11.493371 3.432900 -1.721700 8.149500 -51.375642 -43.409462 30.035885 88.352920 -61.375708 -61.256282 0.895690 -0.535711 18.617679 -7.125000 0.000000 0.000000 44.892753 43.180066 29.467107 -105.529504 57.796426 -72.536954 -0.317792 -0.217605 8.284214 7.125000 0.000000 0.000000 
7.540016 17.645705 -15.654238 -1.393871 -2.674277 -1.535231 -10.181916 -0.638021 -1.825737 -0.276332 6.599768 17.842585 -0.543052 4.540820 -4.716280 0.263000 -3.299300 -9.113000 19.170406 -3.005767 -0.785456 -0.649143 -6.755155 18.018119 1.175752 -9.559053 -9.548139 -0.000100 0.048700 -0.133800 0.842576 0.177138 -3.610895 4.244720 0.331832 -1.700375 5.257626 -3.029424 11.442995 3.185700 -1.650400 8.063900 -51.349411 -43.475633 30.092290 87.851547 -61.341639 -60.837689 0.899727 -0.542887 18.750003 -7.125000 0.000000 0.000000 44.586837 44.004039 29.577581 -104.237637 57.970874 -71.363440 -0.328053 -0.220317 7.900786 7.125000 0.000000 0.000000 
7.539312 17.634239 -15.651020 -1.402329 -2.867504 -1.687428 -10.203611 -0.446985 -1.637115 -0.278146 6.581016 17.788197 -0.586891 4.733739 -4.698024 0.350000 -3.801100 -10.517800 19.240790 -2.625964 -0.593894 -0.667002 -6.822524 18.209168 1.209466 -9.773434 -9.748048 -0.002600 0.330500 -0.908100 0.849384 0.207261 -3.597379 4.364958 0.337943 -1.672546 5.763595 -3.022764 11.759021 3.613900 -1.667400 8.337300 -51.527155 -43.548961 30.353197 87.284760 -61.298206 -60.352658 0.907073 -0.539091 18.727433 -7.125000 0.000000 0.000000 44.382552 44.212653 29.695094 -103.580341 58.041627 -70.768241 -0.333457 -0.221779 7.820814 7.125000 0.000000 0.000000 
7.541122 17.623679 -15.633117 -1.526381 -2.733093 -1.862953 -10.078962 -0.237998 -1.466818 -0.265943 6.575417 17.792118 -0.511298 4.404526 -4.702207 0.409100 -4.106100 -11.375400 19.319414 -2.954915 -0.485846 -0.685605 -6.875305 18.364993 1.182141 -9.642866 -9.836153 -0.002300 0.311700 -0.856500 0.837147 0.215777 -3.597170 4.220764 0.337996 -1.658883 5.878368 -3.158253 11.994068 3.688300 -1.737000 8.442600 -51.828965 -43.618455 30.955400 86.960105 -61.281944 -60.059320 0.912452 -0.540333 18.715873 -7.125000 0.000000 0.000000 44.550615 43.503681 29.776942 -103.852321 58.006453 -71.015088 -0.332903 -0.221957 8.193264 7.125000 0.000000 0.000000 
7.546453 17.617543 -15.619337 -1.664817 -2.594106 -1.985118 -9.924466 -0.189558 -1.321524 -0.251566 6.588596 17.848910 -0.410918 3.979161 -4.890327 0.382000 -3.969200 -10.990000 19.390007 -3.363579 -0.417135 -0.691260 -6.883911 18.394475 1.136150 -9.395594 -9.826039 -0.000400 0.122500 -0.336500 0.821425 0.290693 -3.607521 4.022736 0.376494 -1.688015 5.792958 -3.329638 12.152249 3.598800 -1.819500 8.460400 -52.185002 -43.808387 31.727467 86.491711 -61.251252 -59.640183 0.918301 -0.547871 18.903629 -7.125000 0.000000 0.000000 44.554951 42.895004 29.715513 -103.737734 58.023479 -70.916787 -0.335925 -0.220599 8.608771 7.125000 0.000000 0.000000 
7.550275 17.616236 -15.612397 -1.826681 -2.660971 -1.988680 -9.743723 -0.167805 -1.309388 -0.236678 6.617698 17.941197 -0.372620 3.825292 -5.050964 0.344800 -3.773300 -10.439600 19.585894 -3.267951 -0.300507 -0.680597 -6.854496 18.309193 1.141948 -9.429787 -9.838467 -0.000500 0.144400 -0.396600 0.843867 0.301993 -3.613432 4.003536 0.382590 -1.666844 5.768180 -3.315056 12.322222 3.602400 -1.823500 8.518000 -52.321286 -43.833521 32.005400 85.896078 -61.206080 -59.133911 0.929096 -0.559635 19.354732 -7.125000 0.000000 0.000000 44.495755 42.910096 29.817947 -103.217348 58.090163 -70.445904 -0.342205 -0.219172 8.955379 7.125000 0.000000 0.000000 
7.553494 17.617543 -15.601535 -1.838044 -2.694216 -1.966106 -9.737739 -0.062037 -1.387103 -0.218480 6.661570 18.071347 -0.346946 3.718719 -5.124127 0.346000 -3.779700 -10.457600 19.595440 -3.232380 -0.214286 -0.668502 -6.817163 18.201670 1.152659 -9.484888 -9.822049 -0.003300 0.373400 -1.025900 0.860241 0.199019 -3.606630 4.037509 0.328600 -1.561762 5.795467 -3.219489 12.476825 3.651500 -1.787100 8.590100 -52.151784 -43.751757 31.835869 85.543482 -61.183333 -58.847331 0.935446 -0.572457 20.035347 -7.125000 0.000000 0.000000 44.556572 43.152055 30.047680 -102.715864 58.153623 -69.986142 -0.349897 -0.218421 9.259878 7.125000 0.000000 0.000000 
7.560333 17.617644 -15.592483 -1.892400 -2.685264 -1.965072 -9.705543 -0.024076 -1.437792 -0.199481 6.708794 18.211400 -0.318173 3.598464 -5.194302 0.330600 -3.695100 -10.220500 19.597196 -3.384713 -0.179408 -0.659843 -6.786723 18.116321 1.139737 -9.414353 -9.815552 -0.004200 0.417500 -1.147100 0.848560 0.217640 -3.597929 3.897589 0.335561 -1.502378 5.760964 -3.280043 12.432575 3.624300 -1.813900 8.556800 -52.073110 -43.910713 32.034704 85.119320 -61.153771 -58.481046 0.938560 -0.579235 20.860851 -7.125000 0.000000 0.000000 44.390189 43.156688 29.936967 -102.236781 58.211148 -69.552435 -0.356655 -0.219386 9.212518 7.125000 0.000000 0.000000 
7.564859 17.615431 -15.590672 -2.051116 -2.785581 -1.940789 -9.549020 0.041957 -1.552722 -0.177518 6.756170 18.354751 -0.311411 3.561217 -5.129508 0.307000 -3.562400 -9.848600 19.769872 -3.324762 -0.130889 -0.649006 -6.753692 18.022104 1.148359 -9.455318 -9.780145 -0.002500 0.323300 -0.888300 0.839779 0.302283 -3.615300 3.725780 0.380749 -1.576894 5.697613 -3.305489 12.476975 3.573200 -1.825100 8.567900 -52.005366 -44.047740 32.333356 84.549700 -61.094768 -57.987279 0.942571 -0.584873 21.636945 -7.125000 0.000000 0.000000 44.127957 43.157961 29.819666 -101.715242 58.257739 -69.083317 -0.359730 -0.222576 8.883660 7.125000 0.000000 0.000000 
